<svg width="36" height="26" viewBox="0 0 36 26" fill="none" xmlns="http://www.w3.org/2000/svg">
<path d="M4 0C1.791 0 0 1.791 0 4V22C0 24.209 1.791 26 4 26H10V0H4ZM32 0H26V26H32C34.209 26 36 24.209 36 22V4C36 1.791 34.209 0 32 0Z" fill="#D52B1E"/>
<path d="M10 0H26V25.5H10V0Z" fill="#EEEEEE"/>
<path d="M18.615 17.113C19.813 17.252 20.887 17.377 22.084 17.514L21.779 16.512C21.73 16.336 21.8 16.144 21.938 16.036L25.417 13.202L24.697 12.863C24.38 12.75 24.467 12.571 24.582 12.141L25.113 10.205L23.092 10.632C22.895 10.662 22.764 10.537 22.734 10.417L22.473 9.506L20.875 11.3C20.648 11.588 20.188 11.588 20.331 10.924L21.014 7.29L20.097 7.765C19.84 7.909 19.583 7.933 19.44 7.676L18.175 5.31V5.369V5.31L16.91 7.676C16.766 7.933 16.509 7.909 16.252 7.765L15.336 7.29L16.019 10.924C16.163 11.588 15.702 11.588 15.475 11.3L13.877 9.507L13.617 10.418C13.587 10.538 13.455 10.663 13.258 10.633L11.237 10.206L11.768 12.142C11.881 12.572 11.969 12.751 11.652 12.864L10.932 13.203L14.411 16.037C14.549 16.144 14.619 16.337 14.569 16.513L14.264 17.515L17.734 17.114C17.84 17.114 17.91 17.173 17.909 17.295L17.695 20.999H18.651L18.438 17.295C18.44 17.172 18.509 17.113 18.615 17.113V17.113Z" fill="#D52B1E"/>
</svg>
