<svg width="512" height="512" viewBox="0 0 512 512" fill="none" xmlns="http://www.w3.org/2000/svg">
<rect width="512" height="512" rx="256" fill="#090A0B"/>
<path d="M121.748 347H148.18V277.336H221.428V253.816H148.18V203.64H230.388V180.12H121.748V347ZM328.101 349.688C339.749 349.688 350.277 347.672 359.685 343.64C369.093 339.608 377.008 334.307 383.429 327.736C389.85 321.165 394.48 314.147 397.317 306.68L373.573 295.48C369.989 304.44 364.24 311.683 356.325 317.208C348.56 322.733 339.152 325.496 328.101 325.496C317.05 325.496 307.269 322.957 298.757 317.88C290.394 312.653 283.824 305.411 279.045 296.152C274.266 286.744 271.877 275.843 271.877 263.448C271.877 251.053 274.266 240.227 279.045 230.968C283.824 221.709 290.394 214.467 298.757 209.24C307.269 204.013 317.05 201.4 328.101 201.4C339.152 201.4 348.56 204.237 356.325 209.912C364.24 215.437 369.989 222.68 373.573 231.64L397.317 220.44C394.48 212.824 389.85 205.805 383.429 199.384C377.008 192.813 369.093 187.512 359.685 183.48C350.277 179.448 339.749 177.432 328.101 177.432C316.154 177.432 305.104 179.597 294.949 183.928C284.944 188.109 276.208 194.083 268.741 201.848C261.424 209.464 255.674 218.573 251.493 229.176C247.461 239.629 245.445 251.053 245.445 263.448C245.445 275.843 247.461 287.341 251.493 297.944C255.674 308.397 261.498 317.507 268.965 325.272C276.432 333.037 285.168 339.085 295.173 343.416C305.328 347.597 316.304 349.688 328.101 349.688Z" fill="white"/>
</svg>
