<svg width="256" height="256" viewBox="0 0 256 256" fill="none" xmlns="http://www.w3.org/2000/svg">
<circle cx="128" cy="128" r="128" fill="url(#paint0_linear_1026_7943)"/>
<path d="M194.397 91.5876C191.822 91.5876 189.287 90.3567 187.716 88.0731C174.509 68.8243 152.709 57.3334 129.403 57.3334C106.097 57.3334 84.2977 68.8243 71.09 88.0731C68.5634 91.7577 63.5265 92.697 59.8419 90.1705C56.1574 87.6439 55.218 82.607 57.7446 78.9225C73.9728 55.2765 100.761 41.1537 129.403 41.1537C158.046 41.1537 184.834 55.2684 201.062 78.9225C203.588 82.607 202.649 87.6439 198.964 90.1705C197.572 91.126 195.976 91.5876 194.397 91.5876Z" fill="white"/>
<path d="M129.403 214.846C100.51 214.846 73.5842 200.537 57.3883 176.559C54.886 172.859 55.8578 167.83 59.5667 165.327C63.2755 162.825 68.2962 163.797 70.7985 167.506C83.9819 187.022 105.887 198.667 129.403 198.667C152.944 198.667 174.873 186.998 188.049 167.441C190.543 163.732 195.571 162.752 199.28 165.255C202.989 167.749 203.969 172.778 201.467 176.486C185.279 200.505 158.337 214.846 129.403 214.846Z" fill="white"/>
<defs>
<linearGradient id="paint0_linear_1026_7943" x1="256" y1="383.36" x2="411.577" y2="160.153" gradientUnits="userSpaceOnUse">
<stop stop-color="#D70FFF"/>
<stop offset="0.130208" stop-color="#7502EF"/>
<stop offset="0.369792" stop-color="#470FFF"/>
<stop offset="0.651042" stop-color="#470FFF"/>
<stop offset="0.869792" stop-color="#036CFF"/>
<stop offset="1" stop-color="#21CBED"/>
</linearGradient>
</defs>
</svg>
