<svg width="80" height="80" viewBox="0 0 80 80" fill="none" xmlns="http://www.w3.org/2000/svg">
<circle cx="40" cy="40" r="40" fill="#008CFF" fill-opacity="0.12"/>
<path d="M23.247 25H33.9992C35.1041 25 35.9996 25.8959 35.9992 27.0008L35.9949 37.7519C35.9942 39.5338 33.8393 40.4252 32.5799 39.1645L29.963 36.5447C29.8293 36.4109 29.6125 36.4108 29.4787 36.5445L25.5349 40.4884C24.1478 41.8755 21.8988 41.8755 20.5116 40.4884C19.1245 39.1012 19.1245 36.8523 20.5116 35.4651L24.4556 31.5212C24.5893 31.3875 24.5893 31.1707 24.4556 31.037L21.8328 28.4142C20.5729 27.1543 21.4652 25 23.247 25Z" fill="#008CFF"/>
<path d="M20 52C20 50.8954 20.8954 50 22 50H30C31.1046 50 32 50.8954 32 52V62H20V52Z" fill="#008CFF" fill-opacity="0.6"/>
<path d="M34 44C34 42.8954 34.8954 42 36 42H44C45.1046 42 46 42.8954 46 44V62H34V44Z" fill="#008CFF" fill-opacity="0.8"/>
<path d="M48 36C48 34.8954 48.8954 34 50 34H58C59.1046 34 60 34.8954 60 36V62H48V36Z" fill="#008CFF"/>
</svg>
